<?xml version="1.0" encoding="utf-8"?>
<!-- Generator: Adobe Illustrator 16.0.0, SVG Export Plug-In . SVG Version: 6.00 Build 0)  -->
<!DOCTYPE svg PUBLIC "-//W3C//DTD SVG 1.1//EN" "http://www.w3.org/Graphics/SVG/1.1/DTD/svg11.dtd">
<svg version="1.1" id="Layer_1" xmlns="http://www.w3.org/2000/svg" xmlns:xlink="http://www.w3.org/1999/xlink" x="0px" y="0px"
	 width="321.608px" height="102.333px" viewBox="0 0 321.608 102.333" enable-background="new 0 0 321.608 102.333"
	 xml:space="preserve">
<g>
	<path fill="#79CEE4" d="M69.183,25.006H53.901c-1.188-1.686-3.097-2.668-5.259-2.668s-4.07,0.982-5.259,2.668H28.719v5.058h13.646
		c0.775,3.372,3.287,4.75,6.277,4.75s5.502-1.377,6.277-4.75h14.263V25.006z"/>
	<path fill="#79CEE4" d="M66.296,72.724c-2.672-3.039-6.411-4.654-9.189-5.485c-0.059-0.023-0.117-0.047-0.164-0.047L50.34,81.318
		L41.65,67.145c-2.896,0.949-4.785,2.135-4.785,2.135l-0.047,0.096c-7.29,4.273-12.337,12.083-12.597,21.108
		c0,0,10.78-4.701,24.991-5.033c14.211,0.332,24.978,5.033,24.978,5.033C73.99,83.479,71.045,77.188,66.296,72.724z"/>
	<g>
		<path fill="#142852" d="M48.643,63.868c-14.258,0-25.856-11.611-25.856-25.881c0-14.247,11.598-25.857,25.856-25.857
			c14.27,0,25.869,11.61,25.869,25.857C74.51,52.256,62.912,63.868,48.643,63.868z M48.643,18.161
			c-10.935,0-19.837,8.904-19.837,19.826c0,10.945,8.904,19.85,19.837,19.85c10.946,0,19.837-8.904,19.837-19.85
			C68.479,27.063,59.589,18.161,48.643,18.161z"/>
	</g>
	<path fill="#142852" d="M66.403,57.17c0,0,25.121,13.726,21.096,20.753C83.487,84.952,66.403,57.17,66.403,57.17z"/>
</g>
<g>
	<path fill="#142852" d="M105.145,42.01c3.238-0.562,6.872-0.845,10.548-0.845c5.957,0,10.731,1.352,13.957,4.141
		c3.069,2.535,4.983,6.338,5.041,11.971c0,7.354-3.112,13.774-7.871,17.576c-4.424,3.521-10.042,5.041-18.323,5.041
		c-4.591,0-8.562-0.337-10.436-0.675L105.145,42.01z M107.412,73.08c0.973,0.17,2.17,0.226,3.577,0.226
		c4.422,0,8.337-1.577,10.83-4.479c2.619-2.93,3.972-6.898,3.972-11.492c0-6.026-3.339-9.604-10.099-9.604
		c-1.408,0-2.604,0.057-3.45,0.225L107.412,73.08z"/>
	<path fill="#142852" d="M136.395,79.67l3.113-16.507c0.803-4.195,1.141-8.844,1.42-11.237h7.086
		c-0.17,1.888-0.338,3.746-0.506,5.69h0.168c1.929-3.689,5.056-6.311,8.857-6.311c0.508,0,1.014,0,1.521,0.057l-1.577,7.942
		c-0.407-0.056-0.858-0.056-1.31-0.056c-5.226,0-7.66,4.646-8.676,10.082l-1.931,10.338L136.395,79.67L136.395,79.67z"/>
	<path fill="#79CEE4" d="M155.338,75.529c0-3.125,2.211-5.772,5.492-5.772c2.788,0,4.719,1.972,4.719,4.815
		c0,3.324-2.381,5.662-5.621,5.662C157.153,80.234,155.338,78.261,155.338,75.529z"/>
	<path fill="#142852" d="M181.362,69.756l-4.534,9.914h-8.675l18.603-38.222h10.492l4.479,38.222h-8.562l-0.804-9.914H181.362z
		 M192.024,63.503l-0.733-8.225c-0.168-2.084-0.395-5.156-0.562-7.492h-0.113c-0.972,2.336-2.042,5.295-3.069,7.492l-3.804,8.225
		H192.024z"/>
	<path fill="#142852" d="M225.373,78.826c-1.761,0.845-4.592,1.408-7.888,1.408c-6.856,0-11.688-4.142-11.688-11.352
		c0-9.857,7.549-17.576,18.098-17.576c2.381,0,4.422,0.451,5.619,0.958l-1.985,6.253c-0.974-0.395-2.099-0.678-3.746-0.678
		c-5.846,0-9.407,4.93-9.407,10.143c0,3.801,2.379,5.717,5.437,5.717c2.38,0,4.084-0.563,5.506-1.127L225.373,78.826z"/>
	<path fill="#142852" d="M229.569,79.67l7.592-40.277h8.167l-3.057,16.056l0.113,0.056c2.267-2.535,5.154-4.196,8.844-4.196
		c4.311,0,6.972,2.732,6.972,7.493c0,1.294-0.225,3.407-0.507,4.985l-2.999,15.885h-8.17l2.832-15.209
		c0.226-1.07,0.396-2.254,0.396-3.467c0-1.803-0.789-3.096-2.832-3.096c-2.83,0-5.73,3.463-6.803,9.067l-2.38,12.703H229.569z"/>
	<path fill="#142852" d="M284.69,78.064c-3.239,1.662-7.267,2.17-10.323,2.17c-7.941,0-12.025-4.479-12.025-11.689
		c0-8.45,6.125-17.237,16.166-17.237c5.605,0,9.635,3.127,9.635,8.28c0,7.1-6.858,9.634-17.973,9.352
		c0,0.817,0.283,2.057,0.847,2.846c1.085,1.41,2.956,2.141,5.339,2.141c2.999,0,5.547-0.675,7.759-1.746L284.69,78.064z
		 M277.48,57.277c-3.803,0-5.958,3.1-6.521,5.719c6.353,0.058,9.534-0.844,9.534-3.354C280.494,58.234,279.354,57.277,277.48,57.277
		z"/>
	<path fill="#142852" d="M289.901,79.67l5.267-27.744h8.17l-5.269,27.744H289.901z M296.31,44.49c0.056-2.76,2.21-4.646,4.702-4.646
		c2.382,0,4.084,1.604,4.084,4.024c0,2.904-2.209,4.594-4.814,4.594C298.014,48.462,296.31,46.941,296.31,44.49z"/>
</g>
</svg>
