<?xml version="1.0" encoding="utf-8"?>
<!-- Generator: Adobe Illustrator 16.0.0, SVG Export Plug-In . SVG Version: 6.00 Build 0)  -->
<!DOCTYPE svg PUBLIC "-//W3C//DTD SVG 1.1//EN" "http://www.w3.org/Graphics/SVG/1.1/DTD/svg11.dtd">
<svg version="1.1" id="Layer_1" xmlns="http://www.w3.org/2000/svg" xmlns:xlink="http://www.w3.org/1999/xlink" x="0px" y="0px"
	 width="92.667px" height="72.334px" viewBox="0 0 92.667 72.334" enable-background="new 0 0 92.667 72.334" xml:space="preserve">
<path fill="#FFFFFF" d="M53.458,36.058c-1.297-1.472-3.107-2.254-4.452-2.657c-0.026-0.009-0.054-0.016-0.08-0.024l-3.193,6.836
	l-4.206-6.858c-1.402,0.467-2.314,1.032-2.314,1.032l-0.026,0.047c-3.527,2.074-5.966,5.857-6.094,10.218
	c0,0,5.214-2.271,12.093-2.438c6.878,0.168,12.093,2.438,12.093,2.438C57.178,41.26,55.752,38.22,53.458,36.058z"/>
<path fill="#FFFFFF" d="M44.912,6.729c-6.903,0-12.52,5.616-12.52,12.52c0,6.903,5.616,12.519,12.52,12.519
	s12.52-5.616,12.52-12.519C57.432,12.345,51.815,6.729,44.912,6.729z M44.912,9.646c2.747,0,5.222,1.166,6.973,3.021h-4.611
	c-0.579-0.656-1.417-1.079-2.361-1.079s-1.782,0.422-2.361,1.079h-4.612C39.69,10.812,42.165,9.646,44.912,9.646z M44.912,28.85
	c-5.295,0-9.602-4.308-9.602-9.602c0-1.266,0.252-2.473,0.699-3.581h5.894c0.396,1.294,1.585,2.242,3.009,2.242
	s2.613-0.947,3.009-2.242h5.894c0.447,1.108,0.699,2.315,0.699,3.581C54.514,24.542,50.206,28.85,44.912,28.85z"/>
<path fill="#FFFFFF" d="M53.509,28.525c0,0,12.156,6.646,10.211,10.049C61.774,41.978,53.509,28.525,53.509,28.525z"/>
<g>
	<path fill="#FFFFFF" d="M6.654,48.009c1.319-0.231,2.8-0.347,4.304-0.347c2.43,0,4.374,0.556,5.692,1.688
		c1.25,1.042,2.037,2.593,2.06,4.884c0,3.008-1.272,5.622-3.216,7.173c-1.805,1.435-4.096,2.06-7.475,2.06
		c-1.875,0-3.494-0.139-4.258-0.278L6.654,48.009z M7.579,60.69c0.394,0.069,0.88,0.092,1.458,0.092c1.805,0,3.402-0.647,4.42-1.828
		c1.064-1.203,1.62-2.823,1.62-4.697c0-2.453-1.366-3.911-4.119-3.911c-0.579,0-1.065,0.023-1.412,0.093L7.579,60.69z"/>
	<path fill="#FFFFFF" d="M19.402,63.374l1.273-6.733c0.322-1.713,0.463-3.61,0.578-4.582h2.893c-0.07,0.764-0.139,1.527-0.209,2.314
		h0.07c0.786-1.505,2.059-2.569,3.609-2.569c0.209,0,0.416,0,0.625,0.023l-0.648,3.239c-0.162-0.022-0.348-0.022-0.531-0.022
		c-2.129,0-3.125,1.897-3.541,4.118l-0.787,4.212H19.402z"/>
	<path fill="#FFFFFF" d="M27.131,61.685c0-1.272,0.902-2.36,2.244-2.36c1.135,0,1.921,0.811,1.921,1.968
		c0,1.364-0.972,2.313-2.29,2.313C27.871,63.605,27.131,62.795,27.131,61.685z"/>
	<path fill="#FFFFFF" d="M37.752,59.324l-1.852,4.05h-3.541l7.59-15.597h4.281l1.828,15.597h-3.494l-0.324-4.05H37.752z
		 M42.102,56.779l-0.301-3.355c-0.069-0.856-0.162-2.105-0.231-3.055h-0.046c-0.394,0.949-0.834,2.152-1.25,3.055l-1.551,3.355
		H42.102z"/>
	<path fill="#FFFFFF" d="M55.707,63.026c-0.718,0.348-1.875,0.579-3.217,0.579c-2.8,0-4.767-1.689-4.767-4.628
		c0-4.026,3.077-7.174,7.382-7.174c0.972,0,1.805,0.186,2.29,0.394l-0.81,2.546c-0.393-0.162-0.855-0.277-1.527-0.277
		c-2.383,0-3.841,2.013-3.841,4.142c0,1.551,0.972,2.337,2.222,2.337c0.972,0,1.666-0.231,2.244-0.463L55.707,63.026z"/>
	<path fill="#FFFFFF" d="M57.418,63.374l3.101-16.43h3.333l-1.25,6.549l0.047,0.023c0.925-1.042,2.105-1.713,3.609-1.713
		c1.759,0,2.847,1.11,2.847,3.055c0,0.532-0.093,1.389-0.208,2.036l-1.227,6.479h-3.333l1.157-6.201
		c0.093-0.44,0.162-0.926,0.162-1.412c0-0.74-0.323-1.272-1.157-1.272c-1.157,0-2.337,1.411-2.776,3.702l-0.973,5.184H57.418z"/>
	<path fill="#FFFFFF" d="M79.909,62.726c-1.318,0.672-2.962,0.88-4.211,0.88c-3.24,0-4.906-1.828-4.906-4.767
		c0-3.448,2.499-7.035,6.595-7.035c2.291,0,3.935,1.272,3.935,3.379c0,2.893-2.8,3.934-7.336,3.817c0,0.324,0.115,0.834,0.347,1.158
		c0.44,0.578,1.204,0.879,2.176,0.879c1.227,0,2.268-0.277,3.17-0.718L79.909,62.726z M76.97,54.234c-1.55,0-2.429,1.272-2.66,2.337
		c2.591,0.022,3.888-0.348,3.888-1.365C78.197,54.627,77.734,54.234,76.97,54.234z"/>
	<path fill="#FFFFFF" d="M82.037,63.374l2.152-11.315h3.332l-2.152,11.315H82.037z M84.652,49.027
		c0.022-1.134,0.902-1.897,1.92-1.897c0.972,0,1.667,0.647,1.667,1.643c0,1.18-0.903,1.875-1.968,1.875
		C85.347,50.647,84.652,50.022,84.652,49.027z"/>
</g>
</svg>
