<svg width="73" height="23" viewBox="0 0 73 23" fill="none" xmlns="http://www.w3.org/2000/svg">
<path d="M22.7677 0.98239V22.5004H27.9297V0.98239H22.7677Z" fill="#EEF5F8"/>
<path d="M34.1775 0.0253906C32.8145 0.0253906 31.8285 1.01139 31.8285 2.40339C31.8285 3.76639 32.8145 4.75239 34.1775 4.75239C35.5405 4.75239 36.5265 3.76639 36.5265 2.40339C36.5265 1.01139 35.5405 0.0253906 34.1775 0.0253906ZM31.5965 6.81139V22.5004H36.7295V6.81139H31.5965Z" fill="#EEF5F8"/>
<path d="M66.3223 22.5004H72.4123L66.5543 12.8724L72.2963 6.81139H66.4383L61.4213 12.1184V0.98239H56.2593V22.5004H61.4213V18.2374L63.0163 16.5844L66.3223 22.5004Z" fill="#EEF5F8"/>
<path d="M49.6986 11.6135L52.7492 8.54436C50.8247 6.62817 48.0629 5.9571 45.0096 6.77523C40.3036 8.0362 37.9994 11.9862 39.2604 16.6922C40.4988 21.3141 44.4263 23.5343 49.1043 22.2808C52.3256 21.4176 54.4379 19.4406 55.0194 16.7928L50.7869 15.6752C50.4859 17.0168 49.5921 17.8268 48.2755 18.1795C46.4828 18.6599 44.86 17.5335 44.267 15.3206C43.6815 13.1357 44.5163 11.3208 46.309 10.8404C47.5976 10.4952 48.7636 10.8132 49.6986 11.6135Z" fill="#EEF5F8"/>
<path d="M15.6297 7.62843L17.6457 3.27531C15.1294 1.72784 11.7309 1.25742 8.81766 2.03802C2.82312 3.64425 -0.545914 9.11048 0.970248 14.7689C2.51643 20.5393 8.07018 23.6747 13.9807 22.091C16.8939 21.3104 19.6484 19.0412 21.1564 16.2653L17.296 13.8471C16.2987 15.6154 14.662 17.0147 13.0374 17.45C10.0121 18.2607 7.06961 16.4671 6.22146 13.3018C5.38082 10.1644 7.0398 7.16796 10.0651 6.35734C11.7738 5.89949 13.9208 6.40503 15.6297 7.62843Z" fill="#EEF5F8"/>
</svg>
