<svg width="59" height="25" viewBox="0 0 59 25" fill="none" xmlns="http://www.w3.org/2000/svg">
<path d="M0.733398 0.200195V20.5002H3.9524V5.3332L10.3614 18.3832H12.5944L19.0034 5.3332L19.0324 20.5002H22.1934V0.200195H18.1624L11.4924 13.6852L4.7934 0.200195H0.733398Z" fill="#EEF5F8"/>
<path d="M39.4492 20.5002L39.4202 10.3792C39.3912 6.9862 37.1582 4.9562 33.1852 4.9562C30.2562 4.9562 28.6902 5.6232 26.5442 6.8992L27.9072 9.2192C29.4442 8.1752 30.9812 7.6532 32.4602 7.6532C34.8962 7.6532 36.1432 8.81319 36.1432 10.7562V11.2202H31.4742C27.7622 11.2492 25.6452 13.0472 25.6452 15.8602C25.6452 18.5862 27.7332 20.6452 31.0682 20.6452C33.3012 20.6452 35.0702 19.9782 36.1722 18.6152V20.5002H39.4492ZM31.7642 18.0062C29.9082 18.0062 28.7772 17.1072 28.7772 15.7152C28.7772 14.2362 29.7922 13.6562 31.9672 13.6562H36.1432V15.0772C35.9692 16.7592 34.1422 18.0062 31.7642 18.0062Z" fill="#EEF5F8"/>
<path d="M41.8028 5.0722L46.8778 12.5832L38.0003 24.5003H42.0003L49.0818 14.8452L52.7648 20.5002H56.5928L51.2858 12.5832L59.0003 1.00029H55.5003L49.0818 10.3502L45.6308 5.0722H41.8028Z" fill="#EEF5F8"/>
</svg>
