<svg width="30" height="30" viewBox="0 0 30 30" fill="none" xmlns="http://www.w3.org/2000/svg">
<path d="M17.3865 12.6135C18.7045 13.9315 18.7045 16.0685 17.3865 17.3865C16.0685 18.7045 13.9315 18.7045 12.6135 17.3865C11.2955 16.0685 11.2955 13.9315 12.6135 12.6135C13.9315 11.2955 16.0685 11.2955 17.3865 12.6135" stroke="#7A7A7A" stroke-width="1.5" stroke-linecap="round" stroke-linejoin="round"/>
<path fill-rule="evenodd" clip-rule="evenodd" d="M6.56344 15C6.56344 15.3712 6.59719 15.7425 6.64219 16.1025L4.65719 17.655C4.21719 18 4.09719 18.6162 4.37719 19.1L6.14219 22.1538C6.42094 22.6375 7.01344 22.8413 7.53219 22.6338L9.30969 21.92C9.66094 21.7788 10.0522 21.835 10.3672 22.0438C10.6422 22.2263 10.9272 22.3937 11.2222 22.5437C11.5597 22.715 11.8047 23.0212 11.8584 23.3963L12.1297 25.2875C12.2084 25.84 12.6822 26.25 13.2397 26.25H16.7609C17.3184 26.25 17.7922 25.84 17.8709 25.2875L18.1422 23.3975C18.1959 23.0225 18.4434 22.7137 18.7822 22.5437C19.0759 22.3962 19.3597 22.23 19.6334 22.0487C19.9509 21.8387 20.3434 21.7787 20.6959 21.9212L22.4697 22.6338C22.9872 22.8413 23.5797 22.6375 23.8597 22.1538L25.6247 19.1C25.9047 18.6162 25.7847 17.9987 25.3447 17.655L23.3597 16.1025C23.4047 15.7425 23.4384 15.3712 23.4384 15C23.4384 14.6288 23.4047 14.2575 23.3597 13.8975L25.3447 12.345C25.7847 12 25.9047 11.3837 25.6247 10.9L23.8597 7.84625C23.5809 7.3625 22.9884 7.15875 22.4697 7.36625L20.6959 8.07875C20.3434 8.22 19.9509 8.16125 19.6334 7.95125C19.3597 7.77 19.0759 7.60375 18.7822 7.45625C18.4434 7.28625 18.1959 6.9775 18.1422 6.6025L17.8722 4.7125C17.7934 4.16 17.3197 3.75 16.7622 3.75H13.2409C12.6834 3.75 12.2097 4.16 12.1309 4.7125L11.8584 6.605C11.8047 6.97875 11.5584 7.28625 11.2222 7.4575C10.9272 7.6075 10.6422 7.77625 10.3672 7.9575C10.0509 8.165 9.65969 8.22125 9.30844 8.08L7.53219 7.36625C7.01344 7.15875 6.42094 7.3625 6.14219 7.84625L4.37719 10.9C4.09719 11.3837 4.21719 12.0012 4.65719 12.345L6.64219 13.8975C6.59719 14.2575 6.56344 14.6288 6.56344 15V15Z" stroke="#7A7A7A" stroke-width="1.5" stroke-linecap="round" stroke-linejoin="round"/>
</svg>
