<svg width="24" height="24" viewBox="0 0 24 24" fill="none" xmlns="http://www.w3.org/2000/svg">
<mask id="mask0_3207_98518" style="mask-type:alpha" maskUnits="userSpaceOnUse" x="0" y="0" width="24" height="24">
<path d="M17.0004 6.99826H16" stroke="#788CA0" stroke-width="1.5" stroke-linecap="round" stroke-linejoin="round"/>
<path d="M5.99609 14.0012H6.99651" stroke="#323232" stroke-width="1.5" stroke-linecap="round" stroke-linejoin="round"/>
<path d="M9.99901 17.0025H5.49714C4.11585 17.0025 2.99609 15.8827 2.99609 14.5014V6.49811C2.99609 5.83479 3.2596 5.19864 3.72863 4.72961C4.19767 4.26057 4.83382 3.99707 5.49714 3.99707H17.5021C18.8834 3.99707 20.0032 5.11682 20.0032 6.49811V9.99957" stroke="#323232" stroke-width="1.5" stroke-linecap="round" stroke-linejoin="round"/>
<path d="M22.0031 21.0039L19.8301 18.832" stroke="#323232" stroke-width="1.5" stroke-linecap="round" stroke-linejoin="round"/>
<path d="M9.99901 17.0025H5.49714C4.11585 17.0025 2.99609 15.8827 2.99609 14.5014V6.49811C2.99609 5.83479 3.2596 5.19864 3.72863 4.72961C4.19767 4.26057 4.83382 3.99707 5.49714 3.99707H17.5021C18.8834 3.99707 20.0032 5.11682 20.0032 6.49811V9.99957" stroke="#323232" stroke-width="1.5" stroke-linecap="round" stroke-linejoin="round"/>
<path d="M9.73059 12.2676C8.75387 11.2909 8.75387 9.70731 9.73059 8.73059C10.7073 7.75387 12.2909 7.75387 13.2676 8.73059" stroke="#323232" stroke-width="1.5" stroke-linecap="round" stroke-linejoin="round"/>
<circle cx="17.0017" cy="16.0017" r="4.00167" stroke="#323232" stroke-width="1.5" stroke-linecap="round" stroke-linejoin="round"/>
</mask>
<g mask="url(#mask0_3207_98518)">
<rect width="24" height="24" fill="#788CA0"/>
</g>
</svg>
