<svg width="134" height="36" viewBox="0 0 134 36" fill="none" xmlns="http://www.w3.org/2000/svg">
<g opacity="0.5">
<path d="M74.7332 8.19971V28.4997H77.9522V13.3327L84.3612 26.3827H86.5942L93.0032 13.3327L93.0322 28.4997H96.1932V8.19971H92.1622L85.4922 21.6847L78.7932 8.19971H74.7332Z" fill="#EEF5F8"/>
<path d="M113.449 28.4997L113.42 18.3787C113.391 14.9857 111.158 12.9557 107.185 12.9557C104.256 12.9557 102.69 13.6227 100.544 14.8987L101.907 17.2187C103.444 16.1747 104.981 15.6527 106.46 15.6527C108.896 15.6527 110.143 16.8127 110.143 18.7557V19.2197H105.474C101.762 19.2487 99.6449 21.0467 99.6449 23.8597C99.6449 26.5857 101.733 28.6447 105.068 28.6447C107.301 28.6447 109.07 27.9777 110.172 26.6147V28.4997H113.449ZM105.764 26.0057C103.908 26.0057 102.777 25.1067 102.777 23.7147C102.777 22.2357 103.792 21.6557 105.967 21.6557H110.143V23.0767C109.969 24.7587 108.142 26.0057 105.764 26.0057Z" fill="#EEF5F8"/>
<path d="M115.803 13.0717L120.878 20.5827L112 32.4998H116L123.082 22.8447L126.765 28.4997H130.593L125.286 20.5827L133 8.9998H129.5L123.082 18.3497L119.631 13.0717H115.803Z" fill="#EEF5F8"/>
<path d="M22.7675 6.98202V28.5H27.9295V6.98202H22.7675Z" fill="#EEF5F8"/>
<path d="M34.1772 6.02502C32.8142 6.02502 31.8282 7.01102 31.8282 8.40302C31.8282 9.76602 32.8142 10.752 34.1772 10.752C35.5402 10.752 36.5262 9.76602 36.5262 8.40302C36.5262 7.01102 35.5402 6.02502 34.1772 6.02502ZM31.5962 12.811V28.5H36.7292V12.811H31.5962Z" fill="#EEF5F8"/>
<path d="M66.3221 28.5H72.4121L66.5541 18.872L72.2961 12.811H66.4381L61.4211 18.118V6.98202H56.2591V28.5H61.4211V24.237L63.0161 22.584L66.3221 28.5Z" fill="#EEF5F8"/>
<path d="M49.6984 17.6131L52.749 14.544C50.8244 12.6278 48.0626 11.9567 45.0094 12.7749C40.3034 14.0358 37.9992 17.9858 39.2601 22.6918C40.4986 27.3137 44.426 29.5339 49.104 28.2804C52.3254 27.4173 54.4376 25.4402 55.0192 22.7925L50.7867 21.6748C50.4857 23.0165 49.5918 23.8264 48.2753 24.1792C46.4825 24.6595 44.8597 23.5332 44.2668 21.3202C43.6813 19.1353 44.516 17.3204 46.3088 16.8401C47.5973 16.4948 48.7634 16.8128 49.6984 17.6131Z" fill="#EEF5F8"/>
<path d="M15.6294 13.6281L17.6455 9.27494C15.1292 7.72747 11.7306 7.25705 8.81741 8.03765C2.82288 9.64388 -0.546158 15.1101 0.970004 20.7685C2.51619 26.5389 8.06994 29.6744 13.9804 28.0907C16.8937 27.3101 19.6482 25.0408 21.1561 22.2649L17.2957 19.8467C16.2984 21.6151 14.6618 23.0143 13.0371 23.4497C10.0118 24.2603 7.06937 22.4667 6.22122 19.3014C5.38058 16.1641 7.03956 13.1676 10.0648 12.357C11.7736 11.8991 13.9206 12.4047 15.6294 13.6281Z" fill="#EEF5F8"/>
</g>
</svg>
