<svg width="134" height="35" viewBox="0 0 134 35" fill="none" xmlns="http://www.w3.org/2000/svg">
<path d="M74.7332 7.69971V27.9997H77.9522V12.8327L84.3612 25.8827H86.5942L93.0032 12.8327L93.0322 27.9997H96.1932V7.69971H92.1622L85.4922 21.1847L78.7932 7.69971H74.7332Z" fill="#EEF5F8"/>
<path d="M113.449 27.9997L113.42 17.8787C113.391 14.4857 111.158 12.4557 107.185 12.4557C104.256 12.4557 102.69 13.1227 100.544 14.3987L101.907 16.7187C103.444 15.6747 104.981 15.1527 106.46 15.1527C108.896 15.1527 110.143 16.3127 110.143 18.2557V18.7197H105.474C101.762 18.7487 99.6449 20.5467 99.6449 23.3597C99.6449 26.0857 101.733 28.1447 105.068 28.1447C107.301 28.1447 109.07 27.4777 110.172 26.1147V27.9997H113.449ZM105.764 25.5057C103.908 25.5057 102.777 24.6067 102.777 23.2147C102.777 21.7357 103.792 21.1557 105.967 21.1557H110.143V22.5767C109.969 24.2587 108.142 25.5057 105.764 25.5057Z" fill="#EEF5F8"/>
<path d="M115.803 12.5717L120.878 20.0827L112 31.9998H116L123.082 22.3447L126.765 27.9997H130.593L125.286 20.0827L133 8.4998H129.5L123.082 17.8497L119.631 12.5717H115.803Z" fill="#EEF5F8"/>
<path d="M22.7675 6.48202V28H27.9295V6.48202H22.7675Z" fill="#8B61FF"/>
<path d="M34.1772 5.52502C32.8142 5.52502 31.8282 6.51102 31.8282 7.90302C31.8282 9.26602 32.8142 10.252 34.1772 10.252C35.5402 10.252 36.5262 9.26602 36.5262 7.90302C36.5262 6.51102 35.5402 5.52502 34.1772 5.52502ZM31.5962 12.311V28H36.7292V12.311H31.5962Z" fill="#8B61FF"/>
<path d="M66.3221 28H72.4121L66.5541 18.372L72.2961 12.311H66.4381L61.4211 17.618V6.48202H56.2591V28H61.4211V23.737L63.0161 22.084L66.3221 28Z" fill="#8B61FF"/>
<path d="M49.6984 17.1131L52.749 14.044C50.8244 12.1278 48.0626 11.4567 45.0094 12.2749C40.3034 13.5358 37.9992 17.4858 39.2601 22.1918C40.4986 26.8137 44.426 29.0339 49.104 27.7804C52.3254 26.9173 54.4376 24.9402 55.0192 22.2925L50.7867 21.1748C50.4857 22.5165 49.5918 23.3264 48.2753 23.6792C46.4825 24.1595 44.8597 23.0332 44.2668 20.8202C43.6813 18.6353 44.516 16.8204 46.3088 16.3401C47.5973 15.9948 48.7634 16.3128 49.6984 17.1131Z" fill="#8B61FF"/>
<path d="M15.6294 13.1281L17.6455 8.77494C15.1292 7.22747 11.7306 6.75705 8.81741 7.53765C2.82288 9.14388 -0.546158 14.6101 0.970004 20.2685C2.51619 26.0389 8.06994 29.1744 13.9804 27.5907C16.8937 26.8101 19.6482 24.5408 21.1561 21.7649L17.2957 19.3467C16.2984 21.1151 14.6618 22.5143 13.0371 22.9497C10.0118 23.7603 7.06937 21.9667 6.22122 18.8014C5.38058 15.6641 7.03956 12.6676 10.0648 11.857C11.7736 11.3991 13.9206 11.9047 15.6294 13.1281Z" fill="#8B61FF"/>
</svg>
