<svg width="66" height="25" viewBox="0 0 66 25" fill="none" xmlns="http://www.w3.org/2000/svg">
<path d="M23 0V20.3H26.219V5.133L32.628 18.183H34.861L41.27 5.133L41.299 20.3H44.46V0H40.429L33.759 13.485L27.06 0H23Z" fill="#EEF5F8"/>
<path d="M48.5694 4.872L53.6444 12.383L44.7668 24.3001H48.7668L55.8484 14.645L59.5314 20.3H63.3594L58.0524 12.383L65.7668 0.800098H62.2668L55.8484 10.15L52.3974 4.872H48.5694Z" fill="#EEF5F8"/>
<path d="M15.6296 5.96117L17.6456 1.60806C15.1293 0.0605861 11.7308 -0.409833 8.81753 0.370765C2.823 1.977 -0.546036 7.44322 0.970126 13.1016C2.51631 18.8721 8.07006 22.0075 13.9806 20.4238C16.8938 19.6432 19.6483 17.3739 21.1563 14.5981L17.2958 12.1798C16.2985 13.9482 14.6619 15.3474 13.0372 15.7828C10.012 16.5934 7.06949 14.7999 6.22134 11.6345C5.3807 8.49718 7.03968 5.50071 10.065 4.69009C11.7737 4.23224 13.9207 4.73777 15.6296 5.96117Z" fill="#8B61FF"/>
</svg>
