<svg width="57" height="20" viewBox="0 0 57 20" fill="none" xmlns="http://www.w3.org/2000/svg">
<path d="M8.44142 0.173996C3.88442 0.173996 0.482422 3.345 0.482422 7.629C0.482422 11.934 3.88442 15.168 8.44142 15.168C12.9984 15.168 16.4004 11.934 16.4004 7.629C16.4004 3.366 12.9984 0.173996 8.44142 0.173996ZM8.48342 3.45C10.6884 3.45 12.4524 5.256 12.4524 7.65C12.4524 10.044 10.6884 11.892 8.48342 11.892C6.29942 11.892 4.43042 10.044 4.43042 7.65C4.43042 5.256 6.27842 3.45 8.48342 3.45Z" fill="#8B61FF"/>
<path d="M24.5548 11.766C24.0088 11.997 23.5258 12.144 23.1478 12.144C22.4968 12.165 22.1188 11.787 22.1188 10.947V6.663H25.0588V4.185H22.1188V1.035H18.4018V4.185H16.8268V6.663H18.4018V11.535C18.4018 13.887 19.9978 15.189 22.2028 15.168C23.3158 15.168 24.4498 14.895 25.2688 14.412L24.5548 11.766Z" fill="#8B61FF"/>
<path d="M33.3352 6.642L34.2172 4.857C33.2092 4.143 31.7182 3.723 30.3112 3.723C28.1692 3.723 26.1952 4.689 26.1952 6.957C26.1742 10.989 32.0542 9.708 32.0542 11.997C32.0542 12.837 31.2562 13.194 30.2272 13.194C29.0092 13.194 27.4552 12.669 26.4892 11.808L25.6282 13.53C26.7412 14.538 28.4842 15.084 30.1222 15.084C32.3692 15.084 34.4062 14.055 34.4062 11.766C34.4272 7.713 28.4842 8.826 28.4842 6.768C28.4842 5.97 29.1772 5.655 30.1222 5.655C31.1092 5.655 32.3482 6.033 33.3352 6.642Z" fill="white"/>
<path d="M42.8339 3.744C41.0909 3.744 39.7469 4.458 38.9279 5.76V3.828H36.5129V19.074H38.9279V13.068C39.7469 14.37 41.0909 15.084 42.8759 15.084C46.0679 15.084 48.1679 12.795 48.1679 9.456C48.1679 6.054 46.0049 3.744 42.8339 3.744ZM42.3299 13.026C40.3349 13.026 38.9279 11.535 38.9279 9.372C38.9279 7.272 40.3349 5.76 42.3299 5.76C44.3249 5.76 45.7319 7.293 45.7319 9.372C45.7319 11.514 44.3249 13.026 42.3299 13.026Z" fill="white"/>
<path d="M55.9648 12.438C55.3138 12.753 54.7888 12.921 54.2848 12.921C53.5288 12.921 53.0878 12.564 53.0878 11.409V6.054H56.3848V4.248H53.0878V1.182H50.6938V4.248H49.1188V6.054H50.6938V11.85C50.6938 14.139 52.1428 15.105 53.8228 15.105C54.7678 15.105 55.6918 14.811 56.5738 14.286L55.9648 12.438Z" fill="white"/>
</svg>
