<svg width="133" height="28" viewBox="0 0 133 28" fill="none" xmlns="http://www.w3.org/2000/svg">
<path d="M11.658 1.526C5.365 1.526 0.667 5.905 0.667 11.821C0.667 17.766 5.365 22.232 11.658 22.232C17.951 22.232 22.649 17.766 22.649 11.821C22.649 5.934 17.951 1.526 11.658 1.526ZM11.716 6.05C14.761 6.05 17.197 8.544 17.197 11.85C17.197 15.156 14.761 17.708 11.716 17.708C8.7 17.708 6.119 15.156 6.119 11.85C6.119 8.544 8.671 6.05 11.716 6.05ZM35.001 6.311V14.054C35.001 16.113 33.899 17.563 32.072 17.592C30.535 17.592 29.549 16.519 29.549 14.75V6.311H24.387V16.229C24.387 19.883 26.591 22.232 29.984 22.232C32.217 22.203 33.928 21.275 35.001 19.448V22H40.163V6.311H35.001ZM52.9023 17.534C52.1483 17.853 51.4813 18.056 50.9593 18.056C50.0603 18.085 49.5383 17.563 49.5383 16.403V10.487H53.5983V7.065H49.5383V2.715H44.4053V7.065H42.2303V10.487H44.4053V17.215C44.4053 20.463 46.6093 22.261 49.6543 22.232C51.1913 22.232 52.7573 21.855 53.8883 21.188L52.9023 17.534Z" fill="#8B61FF"/>
<path d="M65.1909 10.458L66.4089 7.993C65.0169 7.007 62.9579 6.427 61.0149 6.427C58.0569 6.427 55.3309 7.761 55.3309 10.893C55.3019 16.461 63.4219 14.692 63.4219 17.853C63.4219 19.013 62.3199 19.506 60.8989 19.506C59.2169 19.506 57.0709 18.781 55.7369 17.592L54.5479 19.97C56.0849 21.362 58.4919 22.116 60.7539 22.116C63.8569 22.116 66.6699 20.695 66.6699 17.534C66.6989 11.937 58.4919 13.474 58.4919 10.632C58.4919 9.53 59.4489 9.095 60.7539 9.095C62.1169 9.095 63.8279 9.617 65.1909 10.458ZM80.4724 11.125L82.2994 8.979C80.8784 7.355 78.7034 6.456 75.9194 6.456C71.3374 6.456 68.1474 9.646 68.1474 14.315C68.1474 18.955 71.3374 22.116 75.9194 22.116C78.8484 22.116 81.0814 21.072 82.4734 19.245L80.6174 17.389C79.5734 18.607 78.0074 19.245 76.0644 19.245C73.3964 19.245 71.4824 17.244 71.4824 14.315C71.4824 11.386 73.3964 9.385 76.0644 9.385C77.9204 9.356 79.3994 10.023 80.4724 11.125ZM88.873 9.646V6.572H85.538V22H88.873V13.938C89.134 11.299 91.106 9.472 94.209 9.646V6.456C91.773 6.456 89.917 7.558 88.873 9.646ZM98.1755 0.162999C97.0735 0.162999 96.2325 1.004 96.2325 2.164C96.2325 3.295 97.0735 4.136 98.1755 4.136C99.2775 4.136 100.118 3.295 100.118 2.164C100.118 1.004 99.2775 0.162999 98.1755 0.162999ZM96.5225 6.572V22H99.8285V6.572H96.5225ZM113.209 6.456C110.802 6.456 108.946 7.442 107.815 9.24V6.572H104.48V27.626H107.815V19.332C108.946 21.13 110.802 22.116 113.267 22.116C117.675 22.116 120.575 18.955 120.575 14.344C120.575 9.646 117.588 6.456 113.209 6.456ZM112.513 19.274C109.758 19.274 107.815 17.215 107.815 14.228C107.815 11.328 109.758 9.24 112.513 9.24C115.268 9.24 117.211 11.357 117.211 14.228C117.211 17.186 115.268 19.274 112.513 19.274ZM131.505 18.462C130.606 18.897 129.881 19.129 129.185 19.129C128.141 19.129 127.532 18.636 127.532 17.041V9.646H132.085V7.152H127.532V2.918H124.226V7.152H122.051V9.646H124.226V17.65C124.226 20.811 126.227 22.145 128.547 22.145C129.852 22.145 131.128 21.739 132.346 21.014L131.505 18.462Z" fill="white"/>
</svg>
