<svg width="31" height="16" viewBox="0 0 31 16" fill="none" xmlns="http://www.w3.org/2000/svg">
<path d="M8.442 0.0739933C3.885 0.0739933 0.483 3.24499 0.483 7.52899C0.483 11.834 3.885 15.068 8.442 15.068C12.999 15.068 16.401 11.834 16.401 7.52899C16.401 3.26599 12.999 0.0739933 8.442 0.0739933ZM8.484 3.34999C10.689 3.34999 12.453 5.15599 12.453 7.54999C12.453 9.94399 10.689 11.792 8.484 11.792C6.3 11.792 4.431 9.94399 4.431 7.54999C4.431 5.15599 6.279 3.34999 8.484 3.34999Z" fill="#8B61FF"/>
<path d="M29.0284 4.21099L30.4774 2.40499C29.0494 0.997993 26.9704 0.136994 24.8914 0.136994C20.5444 0.136994 17.1634 3.34999 17.1634 7.52899C17.1634 11.75 20.5024 15.005 24.8074 15.005C26.8864 15.005 29.0074 14.06 30.4984 12.59L29.0284 10.952C27.9154 12.023 26.4034 12.695 24.9334 12.695C21.9934 12.695 19.6834 10.406 19.6834 7.50799C19.6834 4.60999 21.9934 2.34199 24.9334 2.34199C26.4244 2.34199 27.9574 3.05599 29.0284 4.21099Z" fill="white"/>
</svg>
