<svg width="122" height="27" viewBox="0 0 122 27" fill="none" xmlns="http://www.w3.org/2000/svg">
<path d="M11.658 0.0259991C5.365 0.0259991 0.667 4.405 0.667 10.321C0.667 16.266 5.365 20.732 11.658 20.732C17.951 20.732 22.649 16.266 22.649 10.321C22.649 4.434 17.951 0.0259991 11.658 0.0259991ZM11.716 4.55C14.761 4.55 17.197 7.044 17.197 10.35C17.197 13.656 14.761 16.208 11.716 16.208C8.7 16.208 6.119 13.656 6.119 10.35C6.119 7.044 8.671 4.55 11.716 4.55ZM35.001 4.811V12.554C35.001 14.613 33.899 16.063 32.072 16.092C30.535 16.092 29.549 15.019 29.549 13.25V4.811H24.387V14.729C24.387 18.383 26.591 20.732 29.984 20.732C32.217 20.703 33.928 19.775 35.001 17.948V20.5H40.163V4.811H35.001ZM52.9023 16.034C52.1483 16.353 51.4813 16.556 50.9593 16.556C50.0603 16.585 49.5383 16.063 49.5383 14.903V8.987H53.5983V5.565H49.5383V1.215H44.4053V5.565H42.2303V8.987H44.4053V15.715C44.4053 18.963 46.6093 20.761 49.6543 20.732C51.1913 20.732 52.7573 20.355 53.8883 19.688L52.9023 16.034ZM67.2789 9.625L69.1059 7.479C67.6849 5.855 65.5099 4.956 62.7259 4.956C58.1439 4.956 54.9539 8.146 54.9539 12.815C54.9539 17.455 58.1439 20.616 62.7259 20.616C65.6549 20.616 67.8879 19.572 69.2799 17.745L67.4239 15.889C66.3799 17.107 64.8139 17.745 62.8709 17.745C60.2029 17.745 58.2889 15.744 58.2889 12.815C58.2889 9.886 60.2029 7.885 62.8709 7.885C64.7269 7.856 66.2059 8.523 67.2789 9.625ZM78.3334 4.956C73.5484 4.956 70.2714 8.117 70.2714 12.757C70.2714 17.426 73.5484 20.616 78.3334 20.616C83.0894 20.616 86.3664 17.426 86.3664 12.757C86.3664 8.117 83.0894 4.956 78.3334 4.956ZM78.3334 7.798C81.0884 7.798 83.0314 9.857 83.0314 12.815C83.0314 15.802 81.0884 17.832 78.3334 17.832C75.5494 17.832 73.6064 15.802 73.6064 12.815C73.6064 9.857 75.5494 7.798 78.3334 7.798ZM98.2918 4.956C95.8848 4.956 94.0288 5.942 92.8978 7.74V5.072H89.5628V26.126H92.8978V17.832C94.0288 19.63 95.8848 20.616 98.3498 20.616C102.758 20.616 105.658 17.455 105.658 12.844C105.658 8.146 102.671 4.956 98.2918 4.956ZM97.5958 17.774C94.8408 17.774 92.8978 15.715 92.8978 12.728C92.8978 9.828 94.8408 7.74 97.5958 7.74C100.351 7.74 102.294 9.857 102.294 12.728C102.294 15.686 100.351 17.774 97.5958 17.774ZM114.195 22.617L121.213 5.072H117.878L113.586 16.759L108.975 5.072H105.524L111.904 20.268L111.382 21.428C110.86 22.588 110.048 23.139 109.033 23.139C108.337 23.139 107.757 22.907 107.032 22.385L105.611 24.966C106.684 25.865 107.786 26.271 109.178 26.271C111.498 26.271 113.238 25.053 114.195 22.617Z" fill="#424253"/>
</svg>
