<svg width="122" height="35" viewBox="0 0 122 35" fill="none" xmlns="http://www.w3.org/2000/svg">
<path d="M11.658 7.526C5.365 7.526 0.667 11.905 0.667 17.821C0.667 23.766 5.365 28.232 11.658 28.232C17.951 28.232 22.649 23.766 22.649 17.821C22.649 11.934 17.951 7.526 11.658 7.526ZM11.716 12.05C14.761 12.05 17.197 14.544 17.197 17.85C17.197 21.156 14.761 23.708 11.716 23.708C8.7 23.708 6.119 21.156 6.119 17.85C6.119 14.544 8.671 12.05 11.716 12.05ZM35.001 12.311V20.054C35.001 22.113 33.899 23.563 32.072 23.592C30.535 23.592 29.549 22.519 29.549 20.75V12.311H24.387V22.229C24.387 25.883 26.591 28.232 29.984 28.232C32.217 28.203 33.928 27.275 35.001 25.448V28H40.163V12.311H35.001ZM52.9023 23.534C52.1483 23.853 51.4813 24.056 50.9593 24.056C50.0603 24.085 49.5383 23.563 49.5383 22.403V16.487H53.5983V13.065H49.5383V8.715H44.4053V13.065H42.2303V16.487H44.4053V23.215C44.4053 26.463 46.6093 28.261 49.6543 28.232C51.1913 28.232 52.7573 27.855 53.8883 27.188L52.9023 23.534Z" fill="#8B61FF"/>
<path d="M67.2789 17.125L69.1059 14.979C67.6849 13.355 65.5099 12.456 62.7259 12.456C58.1439 12.456 54.9539 15.646 54.9539 20.315C54.9539 24.955 58.1439 28.116 62.7259 28.116C65.6549 28.116 67.8879 27.072 69.2799 25.245L67.4239 23.389C66.3799 24.607 64.8139 25.245 62.8709 25.245C60.2029 25.245 58.2889 23.244 58.2889 20.315C58.2889 17.386 60.2029 15.385 62.8709 15.385C64.7269 15.356 66.2059 16.023 67.2789 17.125ZM78.3334 12.456C73.5484 12.456 70.2714 15.617 70.2714 20.257C70.2714 24.926 73.5484 28.116 78.3334 28.116C83.0894 28.116 86.3664 24.926 86.3664 20.257C86.3664 15.617 83.0894 12.456 78.3334 12.456ZM78.3334 15.298C81.0884 15.298 83.0314 17.357 83.0314 20.315C83.0314 23.302 81.0884 25.332 78.3334 25.332C75.5494 25.332 73.6064 23.302 73.6064 20.315C73.6064 17.357 75.5494 15.298 78.3334 15.298ZM98.2918 12.456C95.8848 12.456 94.0288 13.442 92.8978 15.24V12.572H89.5628V33.626H92.8978V25.332C94.0288 27.13 95.8848 28.116 98.3498 28.116C102.758 28.116 105.658 24.955 105.658 20.344C105.658 15.646 102.671 12.456 98.2918 12.456ZM97.5958 25.274C94.8408 25.274 92.8978 23.215 92.8978 20.228C92.8978 17.328 94.8408 15.24 97.5958 15.24C100.351 15.24 102.294 17.357 102.294 20.228C102.294 23.186 100.351 25.274 97.5958 25.274ZM114.195 30.117L121.213 12.572H117.878L113.586 24.259L108.975 12.572H105.524L111.904 27.768L111.382 28.928C110.86 30.088 110.048 30.639 109.033 30.639C108.337 30.639 107.757 30.407 107.032 29.885L105.611 32.466C106.684 33.365 107.786 33.771 109.178 33.771C111.498 33.771 113.238 32.553 114.195 30.117Z" fill="white"/>
</svg>
