<svg width="16" height="16" viewBox="0 0 16 16" fill="none" xmlns="http://www.w3.org/2000/svg">
<g clip-path="url(#clip0_2728_208454)">
<path d="M15.4956 0.5H0.504395C0.501967 0.5 0.5 0.501967 0.5 0.504395V15.4956C0.5 15.498 0.501967 15.5 0.504395 15.5H15.4956C15.498 15.5 15.5 15.498 15.5 15.4956V0.504395C15.5 0.501967 15.498 0.5 15.4956 0.5Z" fill="#1877F2"/>
<path d="M10.916 10.168L11.25 8H9.16992V6.59375C9.16992 6.00195 9.45996 5.42188 10.3916 5.42188H11.3379V3.57617C11.3379 3.57617 10.4795 3.42969 9.65918 3.42969C7.94531 3.42969 6.82617 4.4668 6.82617 6.34766V8H4.92188V10.168H6.82617V15.5H9.16992V10.168H10.916Z" fill="white"/>
</g>
<defs>
<clipPath id="clip0_2728_208454">
<rect x="0.5" y="0.5" width="15" height="15" rx="4" fill="white"/>
</clipPath>
</defs>
</svg>
