<svg width="18" height="18" viewBox="0 0 18 18" fill="none" xmlns="http://www.w3.org/2000/svg">
<circle cx="8.9992" cy="8.9992" r="7.16327" fill="white"/>
<path d="M8.99999 0C6.61305 3.09881e-06 4.32386 0.948216 2.63604 2.63604C0.948211 4.32387 -1.62104e-09 6.61305 0 9C0 11.3869 0.948211 13.6761 2.63604 15.364C4.32386 17.0518 6.61305 18 8.99999 18C10.1819 18 11.3522 17.7672 12.4441 17.3149C13.5361 16.8626 14.5282 16.1997 15.364 15.364C16.1997 14.5282 16.8626 13.5361 17.3149 12.4442C17.7672 11.3522 18 10.1819 18 9C18 7.8181 17.7672 6.64778 17.3149 5.55585C16.8626 4.46392 16.1997 3.47177 15.364 2.63604C14.5282 1.80031 13.5361 1.13738 12.4441 0.685084C11.3522 0.232791 10.1819 -2.00415e-07 8.99999 0ZM10.2047 3.23651H10.2179C10.7465 3.24608 10.9156 3.73424 10.9156 3.73424C10.9156 3.73424 11.3675 4.62444 10.9455 5.71324C10.5895 6.63334 10.5164 6.70753 10.5164 6.70753C10.5164 6.70753 10.4013 6.87384 10.7657 6.86666C10.7657 6.86666 12.9906 6.85709 13.0673 6.85709C13.2315 6.85709 13.7553 7.00665 13.7254 7.67309C13.7038 8.16605 13.3969 8.33835 13.2399 8.39458C13.2195 8.40176 13.2087 8.42449 13.2171 8.44483C13.2207 8.4532 13.2267 8.46039 13.2351 8.46518C13.3957 8.5585 13.7242 8.79421 13.717 9.15555C13.7074 9.59346 13.5312 9.75499 13.1644 9.85549C13.144 9.86028 13.1308 9.88181 13.1368 9.90215C13.1392 9.91292 13.1464 9.9213 13.1548 9.92609C13.2938 10.0051 13.5324 10.1977 13.518 10.5877C13.5036 10.985 13.2159 11.125 13.0589 11.1728C13.0385 11.1788 13.0265 11.2003 13.0325 11.2207C13.0349 11.2291 13.0409 11.2374 13.0481 11.2422C13.1476 11.3104 13.295 11.4648 13.2878 11.7818C13.2842 11.9494 13.2279 12.0714 13.1572 12.1587C13.0457 12.2963 12.8707 12.3681 12.6933 12.3693L7.75693 12.3789C7.75574 12.3777 7.48842 12.3789 7.48842 12.0211V8.77147C7.48961 7.97102 7.71377 7.18732 8.13692 6.50771C8.39464 6.09612 8.97243 5.43685 9.29608 5.09585C9.36801 5.01928 9.62932 4.79433 9.62932 4.6711C9.62932 4.51316 9.64731 4.25831 9.6533 3.7833C9.6569 3.48179 9.90264 3.23412 10.2047 3.23651V3.23651ZM4.53475 7.98657H6.51385C6.66969 7.98657 6.79676 8.11221 6.79676 8.26895V12.8048C6.79676 12.9604 6.67089 13.0872 6.51385 13.0872H4.53475C4.37892 13.0872 4.25187 12.9616 4.25187 12.8048V8.26775C4.25306 8.11221 4.37892 7.98657 4.53475 7.98657Z" fill="#5E91FF"/>
</svg>
